<svg xmlns="http://www.w3.org/2000/svg" width="100px" height="100px" viewBox="0 0 154 154">
  <defs>
    <style>
      .a {
        fill: red;
      }

      .b {
        fill: #fff;
      }
    </style>
  </defs>
  <title>PSH_logo_Red</title>
  <g>
    <path class="a" d="M449.6,154H326.4A15.47751,15.47751,0,0,1,311,138.6V15.4A15.47751,15.47751,0,0,1,326.4,0H449.6A15.47751,15.47751,0,0,1,465,15.4V138.6A15.47751,15.47751,0,0,1,449.6,154Z" transform="translate(-311)"/>
    <g>
      <path class="b" d="M402.40645,65.3258c-2.23549,0-4.71936,1.24194-6.95484,3.9742-1.49032,1.49032-3.229,4.71935-5.96129,8.94194a51.51185,51.51185,0,0,1-7.7,11.17741c-3.229,3.47743-6.95483,5.46452-11.17742,5.46452V88.17742c2.23549,0,4.71936-1.24194,6.95484-3.97419a59.0543,59.0543,0,0,0,5.96129-9.19032,70.84608,70.84608,0,0,1,7.45161-11.17742c3.229-3.47742,6.95483-5.46452,10.929-5.46452V65.3258Z" transform="translate(-311)"/>
      <path class="b" d="M363.16129,63.83549A18.03889,18.03889,0,0,0,350.24516,58.371,17.09343,17.09343,0,0,0,337.329,63.83549a17.8083,17.8083,0,0,0-5.21613,12.91613v32.5387h0a6.67856,6.67856,0,0,0,6.70645-6.70645V89.41935c3.229,3.72581,7.20323,5.71291,11.42581,5.71291a18.22124,18.22124,0,0,0,12.91613-5.21613A18.47362,18.47362,0,0,0,368.62581,77,17.77736,17.77736,0,0,0,363.16129,63.83549ZM358.44194,84.7a11.39919,11.39919,0,0,1-16.39355,0,10.68786,10.68786,0,0,1-3.229-6.70646V75.26128a12.13894,12.13894,0,0,1,3.229-6.70645,10.70319,10.70319,0,0,1,9.68709-3.229,12.31624,12.31624,0,0,1,4.96774,1.98709,11.10879,11.10879,0,0,1,4.71936,9.43871A9.76688,9.76688,0,0,1,358.44194,84.7Z" transform="translate(-311)"/>
      <path class="b" d="M414.329,75.26129a12.13889,12.13889,0,0,1,3.229-6.70646,11.3992,11.3992,0,0,1,16.39354,0,11.04279,11.04279,0,0,1,3.229,8.19678h0V95.13226h6.70646V76.75161a17.09339,17.09339,0,0,0-5.46452-12.91612,17.80833,17.80833,0,0,0-12.91613-5.21613c-4.22258,0-8.19677,1.98709-11.4258,5.7129V51.9129a6.67857,6.67857,0,0,0-6.70646-6.70645h0V95.13226h6.70646v-19.871Z" transform="translate(-311)"/>
    </g>
  </g>
</svg>
